<svg width="394" height="58" viewBox="0 0 394 58" fill="none" xmlns="http://www.w3.org/2000/svg">
<path d="M23 36.7775H11.835L9.8275 45H0.395L12.055 6.885H23L34.66 45H25.0075L23 36.7775ZM13.265 30.2325H21.515L17.39 13.375L13.265 30.2325ZM38.1035 45V39.17H41.9535V21.57H38.1035V15.795H48.581L50.176 22.3675C51.221 19.8558 52.5502 17.9858 54.1635 16.7575C55.7952 15.5292 57.7843 14.915 60.131 14.915C61.121 14.915 62.001 14.9975 62.771 15.1625C63.541 15.3092 64.2652 15.52 64.9435 15.795L62.3035 22.9725C61.7719 22.8258 61.2402 22.7158 60.7085 22.6425C60.1768 22.5692 59.5902 22.5325 58.9485 22.5325C57.0418 22.5325 55.3643 23.3117 53.916 24.87C52.486 26.4283 51.3952 28.4083 50.6435 30.81V39.17H56.4185V45H38.1035ZM57.876 28.005V19.48L59.1685 15.795H64.9435L63.321 28.005H57.876ZM86.042 4.19V35.815C86.042 36.9883 86.372 37.8317 87.032 38.345C87.7104 38.84 88.6362 39.0875 89.8095 39.0875C90.5612 39.0875 91.2854 39.005 91.982 38.84C92.6787 38.6567 93.3295 38.4458 93.9345 38.2075L96.0245 44.01C95.0345 44.5233 93.8429 44.9725 92.4495 45.3575C91.0562 45.7425 89.4337 45.935 87.582 45.935C84.062 45.935 81.477 44.9267 79.827 42.91C78.177 40.875 77.352 38.1525 77.352 34.7425V10.13H68.7445V4.19H86.042ZM131.396 15.795L121.661 45C120.799 47.585 119.653 49.7483 118.223 51.49C116.811 53.25 115.042 54.6067 112.916 55.56C110.807 56.5133 108.268 57.0725 105.298 57.2375L104.308 51.105C106.233 50.8667 107.782 50.5092 108.956 50.0325C110.147 49.5558 111.101 48.905 111.816 48.08C112.549 47.2733 113.181 46.2467 113.713 45H110.743L101.476 15.795H110.661L116.326 39.445L122.486 15.795H131.396ZM188.305 19.315C188.305 17.9583 188.048 16.84 187.535 15.96C187.04 15.0617 186.279 14.4017 185.253 13.98C184.244 13.54 182.97 13.32 181.43 13.32H178.35V25.7775H181.898C183.236 25.7775 184.382 25.5483 185.335 25.09C186.288 24.6317 187.022 23.9258 187.535 22.9725C188.048 22.0192 188.305 20.8 188.305 19.315ZM197.6 19.2875C197.6 22.2392 196.968 24.6775 195.703 26.6025C194.438 28.5275 192.668 29.9667 190.395 30.92C188.122 31.855 185.482 32.3225 182.475 32.3225H178.35V45H169.33V6.885H181.32C186.49 6.885 190.496 7.91167 193.338 9.965C196.179 12.0183 197.6 15.1258 197.6 19.2875ZM202.996 45V39.17H206.846V21.57H202.996V15.795H213.474L215.069 22.3675C216.114 19.8558 217.443 17.9858 219.056 16.7575C220.688 15.5292 222.677 14.915 225.024 14.915C226.014 14.915 226.894 14.9975 227.664 15.1625C228.434 15.3092 229.158 15.52 229.836 15.795L227.196 22.9725C226.664 22.8258 226.133 22.7158 225.601 22.6425C225.069 22.5692 224.483 22.5325 223.841 22.5325C221.934 22.5325 220.257 23.3117 218.809 24.87C217.379 26.4283 216.288 28.4083 215.536 30.81V39.17H221.311V45H202.996ZM222.769 28.005V19.48L224.061 15.795H229.836L228.214 28.005H222.769ZM248.35 14.8325C251.356 14.8325 253.914 15.4742 256.022 16.7575C258.13 18.0408 259.744 19.8467 260.862 22.175C261.98 24.485 262.54 27.1983 262.54 30.315C262.54 33.56 261.971 36.3558 260.835 38.7025C259.716 41.0308 258.103 42.8183 255.995 44.065C253.886 45.3117 251.338 45.935 248.35 45.935C245.38 45.935 242.831 45.3208 240.705 44.0925C238.596 42.8642 236.974 41.0858 235.837 38.7575C234.719 36.4292 234.16 33.6333 234.16 30.37C234.16 27.2717 234.719 24.5583 235.837 22.23C236.974 19.9017 238.596 18.0867 240.705 16.785C242.831 15.4833 245.38 14.8325 248.35 14.8325ZM248.35 21.24C246.571 21.24 245.251 21.9733 244.39 23.44C243.546 24.8883 243.125 27.1983 243.125 30.37C243.125 33.5967 243.546 35.9342 244.39 37.3825C245.251 38.8308 246.571 39.555 248.35 39.555C250.128 39.555 251.439 38.8308 252.282 37.3825C253.144 35.9342 253.575 33.5783 253.575 30.315C253.575 27.1617 253.144 24.8608 252.282 23.4125C251.439 21.9642 250.128 21.24 248.35 21.24ZM290.816 15.795V36.53C290.816 40.7467 290.027 44.2117 288.451 46.925C286.892 49.6567 284.564 51.82 281.466 53.415C278.386 55.0283 274.572 56.2842 270.026 57.1825L268.651 50.555C271.602 49.8767 274.077 49.0333 276.076 48.025C278.074 47.0167 279.577 45.6508 280.586 43.9275C281.612 42.1858 282.126 39.9033 282.126 37.08V21.735H271.621V15.795H290.816ZM285.178 0.504999C286.681 0.504999 287.91 0.972499 288.863 1.9075C289.816 2.8425 290.293 4.00667 290.293 5.4C290.293 6.79333 289.816 7.96666 288.863 8.92C287.91 9.855 286.681 10.3225 285.178 10.3225C283.656 10.3225 282.41 9.855 281.438 8.92C280.485 7.96666 280.008 6.79333 280.008 5.4C280.008 4.00667 280.485 2.8425 281.438 1.9075C282.41 0.972499 283.656 0.504999 285.178 0.504999ZM309.192 32.9275C309.393 34.5225 309.806 35.815 310.429 36.805C311.071 37.7767 311.887 38.4917 312.877 38.95C313.867 39.39 314.976 39.61 316.204 39.61C317.542 39.61 318.835 39.39 320.082 38.95C321.328 38.51 322.529 37.9233 323.684 37.19L327.177 41.92C325.802 43.0933 324.133 44.0558 322.172 44.8075C320.228 45.5592 318.01 45.935 315.517 45.935C312.18 45.935 309.384 45.275 307.129 43.955C304.874 42.6167 303.178 40.7833 302.042 38.455C300.905 36.1267 300.337 33.45 300.337 30.425C300.337 27.5467 300.887 24.9342 301.987 22.5875C303.087 20.2225 304.691 18.3433 306.799 16.95C308.926 15.5383 311.52 14.8325 314.582 14.8325C317.368 14.8325 319.779 15.4283 321.814 16.62C323.867 17.8117 325.453 19.5258 326.572 21.7625C327.708 23.9992 328.277 26.685 328.277 29.82C328.277 30.315 328.258 30.8467 328.222 31.415C328.203 31.9833 328.167 32.4875 328.112 32.9275H309.192ZM314.582 20.6625C313.023 20.6625 311.767 21.2217 310.814 22.34C309.861 23.4583 309.283 25.2458 309.082 27.7025H319.807C319.788 25.5758 319.376 23.8708 318.569 22.5875C317.762 21.3042 316.433 20.6625 314.582 20.6625ZM350.118 39.0875C351.309 39.0875 352.428 38.8583 353.473 38.4C354.536 37.9233 355.59 37.3183 356.635 36.585L360.513 42.085C359.229 43.185 357.662 44.1017 355.81 44.835C353.977 45.5683 351.923 45.935 349.65 45.935C346.515 45.935 343.82 45.2933 341.565 44.01C339.31 42.7083 337.578 40.9117 336.368 38.62C335.158 36.31 334.553 33.6333 334.553 30.59C334.553 27.5467 335.167 24.8425 336.395 22.4775C337.642 20.0942 339.402 18.2242 341.675 16.8675C343.967 15.5108 346.68 14.8325 349.815 14.8325C352.033 14.8325 354.004 15.1442 355.728 15.7675C357.469 16.3725 359.064 17.28 360.513 18.49L356.745 23.715C355.755 23.0183 354.71 22.4775 353.61 22.0925C352.51 21.7075 351.364 21.515 350.173 21.515C348.211 21.515 346.625 22.2117 345.415 23.605C344.223 24.98 343.628 27.3083 343.628 30.59C343.628 32.735 343.912 34.4308 344.48 35.6775C345.048 36.9058 345.818 37.7858 346.79 38.3175C347.78 38.8308 348.889 39.0875 350.118 39.0875ZM393.904 43.295C392.767 44.0283 391.392 44.6517 389.779 45.165C388.165 45.6783 386.35 45.935 384.334 45.935C380.52 45.935 377.688 44.9633 375.836 43.02C373.985 41.0583 373.059 38.4 373.059 35.045V21.79H366.926V15.795H373.059V9.47L381.749 8.425V15.795H391.154L390.301 21.79H381.749V35.045C381.749 36.4933 382.079 37.5292 382.739 38.1525C383.399 38.7758 384.453 39.0875 385.901 39.0875C386.928 39.0875 387.863 38.9683 388.706 38.73C389.568 38.4733 390.338 38.1525 391.016 37.7675L393.904 43.295Z" fill="#FFAA47"/>
</svg>
